<svg xmlns="http://www.w3.org/2000/svg" viewBox="0 0 512 384">
    <g transform="translate(0.000000,384.000000) scale(0.100000,-0.100000)">
        <path d="M1881 3808 c-43 -24 -155 -121 -398 -348 -982 -916 -1423 -1339 -1454 -1393 -21 -37 -24 -54 -24 -147 0 -93 3 -110 24 -147 46 -80 1743 -1679 1844 -1738 43 -25 64 -30 138 -33 77 -4 93 -1 142 21 74 34 131 88 164 155 l28 57 3 413 3 412 65 0 c112 0 402 -20 589 -41 799 -88 1441 -313 1737 -609 89 -88 142 -186 154 -278 12 -103 39 -132 119 -132 38 0 52 5 76 29 28 28 29 33 29 123 0 107 -13 241 -36 378 -133 795 -674 1511 -1439 1906 -365 189 -778 307 -1150 329 -55 4 -110 8 -122 11 l-22 4 -3 413 c-3 396 -4 414 -24 458 -31 67 -87 124 -156 159 -53 26 -72 30 -144 30 -74 0 -88 -3 -143 -32z"/>
    </g>
</svg>
